<svg width="48" height="49" viewBox="0 0 48 49" fill="none" xmlns="http://www.w3.org/2000/svg">
<path fill-rule="evenodd" clip-rule="evenodd" d="M29.1465 23.5119C29.886 23.9469 29.886 25.0163 29.1465 25.4513L21.2172 30.1156C20.4672 30.5568 19.5218 30.016 19.5218 29.1459V19.8173C19.5218 18.9472 20.4672 18.4065 21.2172 18.8476L29.1465 23.5119Z" fill="#CAAB7E"/>
<path d="M38.0919 40.1481C35.066 42.9206 31.2992 44.7536 27.2502 45.4238C23.2012 46.0939 19.0448 45.5724 15.2869 43.9227C11.529 42.273 8.33177 39.5663 6.08456 36.1322C3.83735 32.6981 2.63707 28.6846 2.62988 24.5806C2.62764 19.6693 4.3411 14.9116 7.47417 11.1295C7.69791 10.8372 7.80287 10.4712 7.76798 10.1048C7.73308 9.73847 7.56092 9.39884 7.28604 9.15412C6.98633 8.92727 6.61259 8.82078 6.23833 8.85559C5.86407 8.89041 5.51639 9.06401 5.26367 9.34224C1.5024 14.039 -0.3562 19.9779 0.056528 25.981C0.469256 31.984 3.12316 37.6126 7.49184 41.7505C11.8605 45.8883 17.6248 48.233 23.6414 48.3195C29.658 48.406 35.4873 46.228 39.9732 42.2175C40.2446 41.9663 40.4066 41.6185 40.4242 41.2491C40.4418 40.8796 40.3136 40.5181 40.0673 40.2422C39.9464 40.1022 39.7982 39.9882 39.6319 39.9072C39.4656 39.8263 39.2846 39.78 39.0998 39.7712C38.915 39.7624 38.7304 39.7912 38.5571 39.8561C38.3838 39.9209 38.2256 40.0202 38.0919 40.1481Z" fill="url(#paint0_linear_592_2712)"/>
<path d="M23.7469 0.641357C23.3727 0.641357 23.0138 0.790011 22.7492 1.05462C22.4846 1.31922 22.3359 1.6781 22.3359 2.05231C22.3359 2.42652 22.4846 2.7854 22.7492 3.05001C23.0138 3.31462 23.3727 3.46327 23.7469 3.46327C29.3519 3.46326 34.728 5.68661 38.6957 9.64552C42.6635 13.6044 44.8988 18.9756 44.9112 24.5806C44.9047 24.7676 44.9367 24.954 45.0052 25.1282C45.0738 25.3024 45.1775 25.4605 45.3099 25.5929C45.4422 25.7252 45.6004 25.8289 45.7746 25.8975C45.9487 25.9661 46.1351 25.9981 46.3222 25.9915C46.6964 25.9915 47.0553 25.8429 47.3199 25.5783C47.5845 25.3137 47.7331 24.9548 47.7331 24.5806C47.7207 18.2272 45.1881 12.1383 40.6911 7.65013C36.1942 3.162 30.1003 0.641345 23.7469 0.641357V0.641357Z" fill="url(#paint1_linear_592_2712)"/>
<defs>
<linearGradient id="paint0_linear_592_2712" x1="-385.258" y1="2616.03" x2="4468.73" y2="1710.34" gradientUnits="userSpaceOnUse">
<stop stop-color="#C0A072"/>
<stop offset="1" stop-color="#F9DDB8"/>
</linearGradient>
<linearGradient id="paint1_linear_592_2712" x1="-219.699" y1="1675.08" x2="2834.21" y2="1117.67" gradientUnits="userSpaceOnUse">
<stop stop-color="#C0A072"/>
<stop offset="1" stop-color="#F9DDB8"/>
</linearGradient>
</defs>
</svg>
