<svg width="69" height="69" viewBox="0 0 69 69" fill="none" xmlns="http://www.w3.org/2000/svg">
<rect x="0.586914" y="0.277344" width="68.4047" height="68.3999" rx="34.2" fill="#CAAB7E"/>
<rect x="0.586914" y="0.277344" width="68.4047" height="68.3999" rx="34.2" fill="url(#paint0_linear_592_2725)"/>
<path fill-rule="evenodd" clip-rule="evenodd" d="M38.9729 33.5077C39.7124 33.9427 39.7124 35.012 38.9729 35.447L32.8276 39.0619C32.0776 39.5031 31.1322 38.9623 31.1322 38.0922V30.8625C31.1322 29.9924 32.0776 29.4516 32.8276 29.8928L38.9729 33.5077Z" fill="white"/>
<path d="M46.7629 47.6646C44.2158 49.9983 41.0451 51.5412 37.6369 52.1053C34.2287 52.6694 30.73 52.2305 27.5668 50.8418C24.4037 49.4532 21.7124 47.1749 19.8209 44.2842C17.9293 41.3935 16.919 38.0153 16.9129 34.5607C16.911 30.4267 18.3533 26.4219 20.9906 23.2383C21.1789 22.9923 21.2672 22.6842 21.2379 22.3758C21.2085 22.0674 21.0636 21.7816 20.8322 21.5756C20.5799 21.3846 20.2653 21.295 19.9503 21.3243C19.6353 21.3536 19.3426 21.4997 19.1299 21.7339C15.9639 25.6874 14.3994 30.6864 14.7468 35.7395C15.0942 40.7925 17.3281 45.5304 21.0054 49.0133C24.6827 52.4963 29.5348 54.47 34.5992 54.5428C39.6637 54.6156 44.5705 52.7823 48.3464 49.4065C48.5749 49.195 48.7112 48.9023 48.726 48.5913C48.7408 48.2803 48.633 47.976 48.4256 47.7438C48.3238 47.6259 48.1992 47.53 48.0592 47.4618C47.9192 47.3937 47.7668 47.3547 47.6112 47.3473C47.4557 47.3399 47.3003 47.3642 47.1544 47.4187C47.0086 47.4733 46.8754 47.5569 46.7629 47.6646Z" fill="url(#paint1_linear_592_2725)"/>
<path d="M34.6878 14.4097C34.3728 14.4097 34.0707 14.5348 33.848 14.7575C33.6252 14.9803 33.5001 15.2823 33.5001 15.5973C33.5001 15.9123 33.6252 16.2144 33.848 16.4371C34.0707 16.6599 34.3728 16.785 34.6878 16.785C39.4058 16.785 43.9311 18.6565 47.2709 21.9889C50.6107 25.3213 52.4923 29.8424 52.5027 34.5604C52.4972 34.7178 52.5242 34.8747 52.5819 35.0213C52.6396 35.1679 52.7269 35.3011 52.8383 35.4125C52.9497 35.5239 53.0828 35.6112 53.2294 35.6689C53.376 35.7266 53.5329 35.7536 53.6904 35.748C54.0054 35.748 54.3075 35.6229 54.5302 35.4002C54.7529 35.1774 54.8781 34.8754 54.8781 34.5604C54.8676 29.2124 52.7358 24.0871 48.9505 20.3093C45.1652 16.5314 40.0357 14.4097 34.6878 14.4097V14.4097Z" fill="url(#paint2_linear_592_2725)"/>
<defs>
<linearGradient id="paint0_linear_592_2725" x1="34.7893" y1="0.277344" x2="34.7893" y2="68.6773" gradientUnits="userSpaceOnUse">
<stop stop-color="#CAAB7E" stop-opacity="0"/>
<stop offset="1" stop-color="#BB9A6B"/>
</linearGradient>
<linearGradient id="paint1_linear_592_2725" x1="-309.589" y1="2215.9" x2="3776.22" y2="1453.54" gradientUnits="userSpaceOnUse">
<stop stop-color="white"/>
<stop offset="1" stop-color="#F9DDB8"/>
</linearGradient>
<linearGradient id="paint2_linear_592_2725" x1="-170.232" y1="1423.86" x2="2400.38" y2="954.666" gradientUnits="userSpaceOnUse">
<stop stop-color="white"/>
<stop offset="1" stop-color="#F9DDB8"/>
</linearGradient>
</defs>
</svg>
