<svg width="65" height="65" viewBox="0 0 65 65" fill="none" xmlns="http://www.w3.org/2000/svg">
<g clip-path="url(#clip0_1924_1468)">
<path d="M64.8281 10.4578V51.7117C64.8257 51.8958 64.8045 52.0792 64.7649 52.259C64.5696 53.1392 63.9314 53.9203 63.1778 54.3053C62.6799 54.5415 62.1465 54.6939 61.599 54.7564C60.1137 54.9022 58.6036 54.8307 57.1046 54.8114C56.5929 54.8032 56.2161 54.4841 56.0373 53.9808C55.8586 53.4775 55.9576 53.0264 56.3454 52.7321C56.6622 52.5071 57.0358 52.3756 57.4236 52.3525C58.5871 52.3058 59.7561 52.347 60.9223 52.3305C61.7227 52.3223 62.2563 51.9042 62.3004 51.1753C62.3554 50.3337 62.3141 49.4838 62.3141 48.6202C62.1821 48.6064 62.1023 48.5872 62.0226 48.5872C54.8564 48.5872 47.6903 48.5927 40.5242 48.6037C40.3289 48.6037 40.0538 48.8072 39.9493 48.9915C39.2369 50.287 38.1615 51.0406 36.6899 51.0681C34.1081 51.1121 31.5253 51.1112 28.9416 51.0653C27.5498 51.0433 26.4743 50.353 25.8087 49.1208C25.5942 48.7247 25.3906 48.5707 24.9203 48.5707C17.9421 48.5927 10.9639 48.5844 3.98577 48.5872C3.78498 48.5872 3.58143 48.6037 3.33113 48.6147V50.4547C3.33113 51.9867 3.6777 52.336 5.20151 52.336H48.0085C48.3193 52.336 48.6411 52.3388 48.9354 52.4213C49.502 52.5781 49.8046 53.0044 49.8073 53.5765C49.8101 54.1486 49.5103 54.5749 48.9464 54.7454C48.6933 54.8197 48.4128 54.8307 48.146 54.8307C45.8135 54.8362 43.481 54.8334 41.1458 54.8362C40.9313 54.8362 40.7167 54.8527 40.4829 54.8637C40.813 57.3913 41.1321 59.842 41.4594 62.3421C41.9572 62.3421 42.4166 62.3174 42.8677 62.3504C43.4095 62.3889 43.8056 62.6667 43.9926 63.1975C44.0561 63.3783 44.0778 63.571 44.0559 63.7614C44.027 64.0419 43.9027 64.304 43.7038 64.504C43.564 64.6422 43.392 64.7433 43.2032 64.7983C43.1322 64.8176 43.0594 64.8296 42.9859 64.834C42.6036 64.8588 28.7105 64.8423 22.5658 64.834C22.4625 64.8275 22.3611 64.8033 22.266 64.7625C21.7076 64.526 21.6086 63.8219 21.6031 63.7861C21.5809 63.5877 21.6025 63.3867 21.6664 63.1975C21.8781 62.5814 22.3402 62.3366 23.2892 62.3339H24.2024L25.1816 54.8334H5.08049C2.33818 54.8362 0.833626 53.3289 0.830876 50.5868V28.839C0.830876 23.0466 0.829959 17.2551 0.828125 11.4645C0.828125 10.5211 1.00416 9.64369 1.57078 8.87357C2.73151 7.29206 4.52213 7.15454 6.18896 7.42408C6.74183 7.5121 7.0994 8.09794 7.07189 8.63703C7.05578 8.93185 6.93502 9.21126 6.73133 9.42502C6.52764 9.63879 6.25438 9.77288 5.96067 9.80322C5.52883 9.85547 5.08599 9.81422 4.64865 9.83897C3.94451 9.87473 3.46041 10.2488 3.37514 10.8951C3.31463 11.3545 3.36414 11.8303 3.36414 12.3336H4.09854C9.01654 12.3336 13.9327 12.3382 18.847 12.3474L19.9555 12.3584C20.2571 12.0133 20.5824 11.6898 20.9292 11.3902C21.6819 10.7462 22.5288 10.2212 23.4405 9.83347H14.9C14.6937 9.83347 14.4819 9.83897 14.2784 9.80322C13.654 9.6932 13.2194 9.18987 13.2139 8.59577C13.2084 8.00168 13.6402 7.48459 14.2591 7.37183C14.4819 7.33057 14.7157 7.33607 14.944 7.33607C17.9834 7.33332 21.0255 7.30581 24.0648 7.35532C24.7992 7.36907 25.1321 7.14354 25.4511 6.49168C26.9832 3.34518 29.5302 1.47213 32.9712 0.963298C37.4353 0.300442 41.5749 2.61906 43.4563 6.72547C43.6653 7.18204 43.9046 7.34707 44.4217 7.34432C49.8568 7.32507 55.2919 7.33882 60.7298 7.32782C60.9113 7.33332 62.8312 7.41858 63.9012 8.49951C64.1157 8.71679 64.5613 9.16786 64.7456 9.89398C64.7936 10.0784 64.8213 10.2674 64.8281 10.4578ZM3.37789 14.853V46.087H4.16455C11.4755 46.087 18.7874 46.087 26.1003 46.087C27.2995 46.087 27.5966 46.3263 27.8496 47.4788C28.0009 48.1609 28.408 48.5679 29.1011 48.5734C31.5785 48.5954 34.0567 48.5963 36.5359 48.5762C37.2345 48.5707 37.6499 48.1719 37.8039 47.5008C38.0762 46.3043 38.3512 46.087 39.6 46.087C46.911 46.0834 54.2229 46.0834 61.5357 46.087H62.2921V14.8585H51.0808C51.2459 15.7717 51.3971 16.6683 51.5787 17.5595C51.6062 17.697 51.7465 17.8235 51.8592 17.9308C52.5441 18.5799 52.4479 19.482 51.6667 19.9908C51.4467 20.1339 51.2761 20.3842 51.1496 20.6207C50.748 21.3688 50.4702 22.1967 49.9806 22.8788C48.234 25.3267 45.7943 26.4681 42.8044 26.4599C42.1635 26.4571 41.5226 26.4599 40.8873 26.4599C40.8598 26.5782 40.835 26.6359 40.835 26.6964C40.8332 29.7586 40.8322 32.8207 40.8322 35.8829C40.835 36.5127 41.1156 36.785 41.7619 36.8015C42.6586 36.8208 43.5553 36.7905 44.4492 36.8125C44.8591 36.8235 45.1121 36.73 45.3432 36.3395C45.6931 35.7528 46.2236 35.2953 46.8553 35.0355C47.4871 34.7757 48.186 34.7275 48.8474 34.8982C50.2859 35.2695 51.2899 36.5182 51.3229 37.9787C51.3559 39.4392 50.4152 40.7099 49.0344 41.1335C47.6096 41.5708 46.1381 41.0482 45.3487 39.7638C45.1314 39.4145 44.9113 39.2824 44.5097 39.2989C43.6571 39.3292 42.8017 39.3099 41.949 39.3072C39.6605 39.2934 38.332 37.9705 38.3292 35.6959C38.3256 32.8427 38.3256 29.9887 38.3292 27.1337V26.4956H34.1264C34.1071 26.5864 34.0851 26.6442 34.0851 26.7047C34.0824 30.6213 34.0741 34.5379 34.0961 38.4546C34.0989 38.6526 34.3107 38.9194 34.4977 39.0431C35.7767 39.8738 36.3488 41.2903 35.9445 42.7232C35.5567 44.0985 34.2667 45.0776 32.8364 45.0804C31.4061 45.0831 30.1106 44.1095 29.7172 42.737C29.3074 41.3068 29.8575 39.8545 31.164 39.0734C31.5079 38.8671 31.5876 38.6498 31.5876 38.2813C31.5739 34.5297 31.5794 30.7808 31.5794 27.032C31.5794 26.8504 31.5546 26.6717 31.5436 26.5094H27.3298V27.1833C27.3298 30.0767 27.338 32.9729 27.327 35.8691C27.3188 37.7532 26.1883 39.0707 24.3482 39.2494C23.2947 39.3512 22.2247 39.3099 21.1658 39.2989C20.7752 39.2934 20.5359 39.3897 20.3186 39.7528C19.6887 40.8007 18.7068 41.3205 17.4965 41.282C15.8627 41.2298 14.6084 40.0718 14.3691 38.4931C14.1491 37.0353 15.0458 35.5253 16.4403 35.011C17.9366 34.4554 19.4989 35.0275 20.4011 36.4137C20.5276 36.609 20.8384 36.7768 21.0695 36.7878C21.9414 36.8318 22.8188 36.8098 23.6935 36.8043C24.5682 36.7988 24.8295 36.565 24.8295 35.6491C24.8313 32.7941 24.8313 29.9401 24.8295 27.087C24.8295 26.8862 24.8102 26.6882 24.7992 26.4571C22.8271 26.4571 20.9127 26.4819 18.9983 26.4516C16.2725 26.4076 14.2041 24.4466 14.0996 21.7814C13.995 19.1877 15.9975 16.9764 18.5362 16.8086C18.6903 16.8003 18.8443 16.7343 18.9791 16.7013C19.0203 16.0577 19.0561 15.4664 19.0918 14.853H3.37789ZM31.065 23.9597C34.98 23.9597 38.8949 23.9597 42.8099 23.9597C44.1742 23.9597 45.4587 23.6599 46.5699 22.8403C48.5751 21.3606 49.5075 18.8384 48.8969 16.6188C48.1845 14.0196 46.2068 12.3501 43.5471 12.0998C42.235 11.9761 41.916 11.6515 41.8472 10.3643C41.6877 7.36907 39.7238 4.77266 36.8412 3.74674C34.0824 2.76484 30.8642 3.57347 28.8948 5.74907C27.6928 7.07753 27.0189 8.62603 26.9282 10.4276C26.8732 11.5552 26.5156 12.0366 25.5474 12.0668C22.9839 12.1466 20.8577 14.6357 21.7104 17.5457C22.0074 18.5551 21.4738 19.2125 20.4286 19.2537C19.807 19.2785 19.1771 19.251 18.561 19.3225C17.678 19.427 17.0729 19.9578 16.7511 20.7692C16.4293 21.5806 16.5641 22.4085 17.1417 23.1098C17.6698 23.7535 18.3794 23.9652 19.1936 23.9625C23.1526 23.9551 27.1097 23.9542 31.065 23.9597ZM27.7038 54.8554C27.3765 57.3638 27.0575 59.8255 26.7356 62.3009H38.9261C38.5988 59.7952 38.277 57.3281 37.9524 54.8554H27.7038ZM62.3279 12.3336V11.8193C62.3416 10.1635 62.017 9.83347 60.375 9.83347H45.6072C46.988 10.3946 48.2037 11.1482 49.2517 12.1878C49.381 12.3171 49.6725 12.3254 49.8871 12.3281C52.9494 12.3355 56.0107 12.3373 59.0712 12.3336H62.3279ZM17.3837 37.3324C17.2303 37.3722 17.094 37.4608 16.9953 37.5848C16.8966 37.7088 16.8408 37.8616 16.8364 38.02C16.824 38.1674 16.8566 38.3151 16.9299 38.4436C17.0757 38.6828 17.3535 38.7984 17.601 38.7929C17.6643 38.7901 17.9283 38.7791 18.1264 38.5673C18.3244 38.3555 18.3107 38.1438 18.3107 38.064C18.3189 37.9132 18.2784 37.7637 18.1952 37.6377C18.0219 37.3736 17.6725 37.2609 17.3837 37.3324ZM48.0772 37.3241C47.9563 37.3214 47.8366 37.3489 47.729 37.4041C47.6214 37.4593 47.5293 37.5406 47.4611 37.6404C47.2686 37.9237 47.3016 38.3308 47.5354 38.5701C47.7692 38.8094 48.0442 38.7764 48.102 38.7709C48.1597 38.7654 48.4293 38.7351 48.6026 38.5398C48.8199 38.2923 48.8336 37.8907 48.6328 37.6184C48.432 37.3461 48.0992 37.3241 48.0772 37.3241ZM33.348 41.2958C33.1279 41.084 32.8474 41.1005 32.7841 41.106C32.7209 41.1115 32.421 41.1335 32.2285 41.3838C32.036 41.6341 32.036 42.0934 32.2725 42.3437C32.5091 42.594 32.7456 42.5637 32.8061 42.5665C32.8666 42.5692 33.1307 42.5747 33.337 42.3822C33.5433 42.1897 33.5598 41.9119 33.5598 41.8486C33.5598 41.7853 33.5653 41.5075 33.348 41.2958Z" fill="#CAAB7E"/>
<path d="M10.719 8.61781C10.7025 9.28892 10.1304 9.83626 9.45926 9.82526C8.78812 9.81426 8.21601 9.23116 8.21876 8.57656C8.22151 7.92195 8.85139 7.3086 9.53078 7.34161C9.85667 7.35592 10.1639 7.49773 10.3862 7.73647C10.6084 7.97521 10.728 8.29174 10.719 8.61781Z" fill="#CAAB7E"/>
<path d="M53.5709 54.8279C52.9053 54.8142 52.3332 54.2366 52.3359 53.5792C52.3387 52.9219 52.9631 52.3113 53.6452 52.3443C54.3273 52.3773 54.8555 52.9494 54.8362 53.6233C54.8169 54.2971 54.2393 54.8417 53.5709 54.8279Z" fill="#CAAB7E"/>
<path d="M11.8667 36.818C12.5571 36.829 13.0934 37.3709 13.0907 38.053C13.0879 38.7351 12.5268 39.2824 11.8557 39.2879C11.1845 39.2934 10.5684 38.6856 10.5904 38.009C10.6124 37.3324 11.1845 36.807 11.8667 36.818Z" fill="#CAAB7E"/>
<path d="M53.8446 36.8179C54.5239 36.8317 55.0796 37.3955 55.0686 38.0611C55.0576 38.7267 54.4772 39.2878 53.8143 39.2878C53.1514 39.2878 52.5463 38.6965 52.571 38.0006C52.5958 37.3047 53.1514 36.8042 53.8446 36.8179Z" fill="#CAAB7E"/>
<path d="M54.8124 17.6694C55.4946 17.6694 56.0584 18.2113 56.0694 18.8796C56.0804 19.548 55.4918 20.1366 54.7822 20.1228C54.4568 20.1185 54.1464 19.9856 53.9186 19.7532C53.6908 19.5208 53.5642 19.2078 53.5664 18.8824C53.5747 18.203 54.1248 17.6694 54.8124 17.6694Z" fill="#CAAB7E"/>
<path d="M58.5459 17.6666C59.2281 17.6583 59.7947 18.1892 59.8194 18.8603C59.8442 19.5314 59.2583 20.1282 58.5542 20.1227C57.85 20.1172 57.3192 19.5754 57.3164 18.8988C57.3137 18.2222 57.8583 17.6776 58.5459 17.6666Z" fill="#CAAB7E"/>
</g>
<defs>
<clipPath id="clip0_1924_1468">
<rect width="64" height="64" fill="white" transform="translate(0.828125 0.850586)"/>
</clipPath>
</defs>
</svg>
