<svg width="65" height="65" viewBox="0 0 65 65" fill="none" xmlns="http://www.w3.org/2000/svg">
<path d="M0.566406 51.7494V10.5866C0.80847 10.064 0.979015 9.49183 1.30635 9.02973C2.43415 7.42337 4.20012 7.29409 5.89457 7.55265C6.45021 7.63792 6.81331 8.21555 6.79405 8.75192C6.78288 9.04658 6.66664 9.32752 6.46635 9.54394C6.26606 9.76037 5.99494 9.89799 5.70201 9.93193C5.27015 9.98419 4.83003 9.94568 4.39542 9.96769C3.64172 10.0034 3.15484 10.4188 3.08332 11.1284C3.03931 11.552 3.07507 11.9839 3.07507 12.413H21.2436V9.96218H14.7409C14.5759 9.96218 14.4081 9.96769 14.243 9.95943C13.4701 9.91542 12.9364 9.41756 12.9227 8.73541C12.9089 8.05326 13.4618 7.48114 14.265 7.47563C16.3666 7.45638 18.4654 7.46738 20.5642 7.46738H21.2739C21.2739 6.35889 21.2601 5.32191 21.2794 4.28768C21.3041 2.91787 21.9341 1.91115 23.1581 1.28951C23.3947 1.17124 23.6478 1.08322 23.8926 0.981445H41.1094C43.1422 1.64709 43.8821 3.11042 43.7363 5.15962C43.6813 5.91604 43.7281 6.67796 43.7281 7.46738H60.0867C62.9612 7.46738 64.4355 8.93071 64.4355 11.7858V50.5722C64.4355 50.8417 64.4383 51.1141 64.4163 51.3836C64.2512 53.2568 62.8704 54.7063 60.9971 54.8301C59.6108 54.9209 58.2134 54.8824 56.8215 54.8521C56.0926 54.8384 55.5837 54.2773 55.5865 53.6171C55.5892 52.957 56.0981 52.4453 56.827 52.3793C56.9921 52.3656 57.1571 52.3738 57.3249 52.3738C58.3839 52.3738 59.4457 52.3821 60.5048 52.3711C61.2722 52.3628 61.8169 52.0218 61.8746 51.3699C61.9544 50.4732 61.8939 49.5627 61.8939 48.6495H39.778C39.1124 50.1651 37.9901 51.0783 36.3259 51.1086C33.7704 51.1581 31.215 51.1498 28.6568 51.1086C27.2127 51.0865 26.1097 50.3741 25.455 49.0869C25.2514 48.6908 25.0259 48.6248 24.6435 48.6248C17.6603 48.6339 10.6762 48.6367 3.69123 48.633C3.49318 48.633 3.29238 48.6495 3.06132 48.6605V50.3301C3.06132 52.085 3.34464 52.3738 5.07485 52.3738H47.6011C47.8707 52.3738 48.1457 52.3656 48.4098 52.4123C49.026 52.5196 49.4606 53.0422 49.4551 53.6309C49.4496 54.2195 49.015 54.7256 48.3933 54.8356C48.1898 54.8714 47.9807 54.8659 47.7716 54.8659H40.1301C40.4602 57.3937 40.7848 59.8527 41.1121 62.3503C41.5165 62.3503 41.8686 62.3448 42.2179 62.3503C43.1284 62.364 43.7088 62.8454 43.7171 63.5853C43.7253 64.3252 43.1422 64.8341 42.2427 64.8423C41.0571 64.8506 39.8716 64.8451 38.686 64.8451C33.3863 64.8451 28.0865 64.8442 22.7868 64.8423C21.8763 64.8423 21.2931 64.3527 21.2849 63.6101C21.2766 62.8674 21.857 62.3668 22.7593 62.3503C23.1279 62.3448 23.4992 62.3503 23.8926 62.3503C24.2199 59.8335 24.539 57.3744 24.8663 54.8659H24.0494C17.5852 54.8659 11.1209 54.8677 4.65674 54.8714C3.50143 54.8714 2.4259 54.6128 1.66945 53.7271C1.19082 53.166 0.926752 52.4178 0.566406 51.7494ZM3.08332 46.1354H25.7823C26.9816 46.1354 27.2787 46.372 27.5318 47.5218C27.6803 48.2039 28.0874 48.611 28.7779 48.6165C31.2517 48.6385 33.7255 48.6394 36.1993 48.6193C36.898 48.6138 37.3106 48.2177 37.4647 47.5465C37.737 46.35 38.0093 46.1354 39.2554 46.1354H61.9049V14.993H43.7281V15.711C43.7281 20.5135 43.7198 25.3161 43.7336 30.1159C43.7363 31.3427 43.354 32.3907 42.3114 33.0646C41.7888 33.4001 41.1479 33.5542 40.485 33.821C40.485 34.4399 40.4767 35.166 40.4877 35.8894C40.4987 36.6128 40.7545 36.8631 41.4752 36.8741C42.3885 36.8879 43.3045 36.8631 44.2177 36.8852C44.5725 36.8934 44.7651 36.7779 44.9521 36.4671C45.7031 35.2073 47.128 34.6241 48.4813 34.9735C49.92 35.3448 50.9212 36.5853 50.957 38.0432C50.9927 39.501 50.0602 40.7635 48.6766 41.1926C47.2325 41.641 45.7636 41.1018 44.9632 39.7815C44.7706 39.468 44.5753 39.3579 44.226 39.3662C43.3732 39.3882 42.5205 39.3745 41.6678 39.3717C39.3022 39.3662 37.9928 38.0624 37.9901 35.7134C37.9873 35.0367 37.9901 34.3601 37.9901 33.6972H33.7484C33.7484 35.243 33.7677 36.7559 33.7374 38.266C33.7292 38.7143 33.8612 38.9564 34.2518 39.1957C35.4566 39.9328 35.982 41.3549 35.6244 42.7137C35.4516 43.3716 35.0763 43.9586 34.5516 44.3915C34.0268 44.8244 33.3792 45.0814 32.7004 45.126C31.3333 45.2195 29.9992 44.3723 29.4986 43.096C28.9814 41.773 29.2757 40.2271 30.4448 39.457C31.215 38.9454 31.292 38.376 31.2618 37.6058C31.2233 36.5468 31.2535 35.4851 31.2535 34.4261V33.7109H27.0091C27.0091 34.5471 27.0284 35.3366 27.0064 36.1232C26.9541 37.8479 25.8181 39.1379 24.1016 39.3057C23.0509 39.4075 21.9863 39.3772 20.9273 39.3634C20.4927 39.3579 20.2369 39.4625 19.9838 39.8613C18.8367 41.6685 16.2978 41.861 14.8894 40.2877C13.6104 38.8601 13.8084 36.7311 15.3268 35.5456C16.8452 34.3601 18.9688 34.7809 20.0223 36.379C20.1543 36.5771 20.3799 36.8466 20.5697 36.8549C21.6067 36.8989 22.6492 36.8879 23.6863 36.8659C24.1566 36.8549 24.4922 36.6046 24.506 36.104C24.528 35.298 24.5115 34.4894 24.5115 33.6944C22.2641 33.3314 21.2739 32.1734 21.2739 29.9536V14.9903H3.08332V46.1354ZM41.2332 7.43713H23.8156C23.8018 7.50039 23.7715 7.58016 23.7715 7.65992C23.7688 9.38456 23.7605 11.1092 23.7743 12.8338C23.7798 13.4445 24.0741 13.7003 24.7398 13.703C29.9148 13.7067 35.0899 13.7067 40.2649 13.703C40.9718 13.7003 41.2249 13.4307 41.2304 12.7073C41.2387 11.8959 41.2332 11.0844 41.2332 10.2758V7.43713ZM23.7688 16.1703C23.7688 17.9252 23.766 19.6691 23.7715 21.4102C23.7743 22.1914 24.0246 22.4334 24.8333 22.4362C29.946 22.4399 35.0587 22.4399 40.1714 22.4362C40.9966 22.4334 41.2304 22.1886 41.2332 21.3442C41.235 19.7855 41.2341 18.2268 41.2304 16.6682C41.2304 16.4921 41.2057 16.3188 41.1947 16.1703H23.7688ZM41.2332 24.9007H23.8156C23.8046 24.964 23.7715 25.0438 23.7715 25.1208C23.7688 26.8454 23.7605 28.5728 23.7743 30.2974C23.7798 30.9081 24.0741 31.1639 24.737 31.1666H40.2649C40.9691 31.1639 41.2249 30.8943 41.2304 30.1709C41.2387 29.3595 41.2332 28.5508 41.2332 27.7394V24.9007ZM27.386 54.8879C27.0587 57.3827 26.7396 59.8307 26.4122 62.3145H38.5842C38.2569 59.8142 37.9378 57.3552 37.6132 54.8879H27.386ZM43.7583 12.413H61.9406V11.9371C61.9516 10.2895 61.6298 9.96218 59.9849 9.96218H43.7583V12.413ZM32.5134 3.47625C29.9148 3.47625 27.3163 3.47716 24.7178 3.479C24.1236 3.48175 23.744 3.78982 23.7853 4.24367C23.8348 4.78004 24.1924 4.97808 24.693 4.97258H40.0971C40.2842 4.97258 40.5152 5.01659 40.6473 4.92582C40.8673 4.77454 41.1314 4.55449 41.1836 4.32069C41.2359 4.08688 41.0626 3.78432 40.8838 3.64679C40.705 3.50926 40.3804 3.4845 40.1191 3.48175C37.5829 3.47075 35.0468 3.47625 32.5134 3.47625ZM16.9772 37.4408C16.6582 37.5811 16.5729 37.9139 16.5619 37.9634C16.5509 38.0129 16.4904 38.2687 16.6307 38.5025C16.826 38.8298 17.2303 38.8381 17.2881 38.8381C17.7144 38.8408 18.0033 38.5768 18.0115 38.1394C18.0115 38.0707 18.0143 37.8864 17.9015 37.7131C17.7227 37.4408 17.3156 37.2922 16.9772 37.4408ZM48.4923 37.9221C48.297 37.7818 48.0522 37.4793 47.7524 37.416C47.2958 37.3197 47.0042 37.6498 46.9904 38.1064C46.9767 38.563 47.2545 38.8188 47.6809 38.8381C48.1072 38.8573 48.4016 38.5823 48.4923 37.9221ZM32.5216 41.1513C32.0732 41.1981 31.7789 41.4292 31.7707 41.8885C31.7624 42.3479 32.0265 42.5954 32.4501 42.6229C32.8737 42.6504 33.2038 42.3864 33.2285 41.9325C33.2533 41.4787 32.9672 41.2256 32.5216 41.1513Z" fill="#CAAB7E"/>
<path d="M54.4638 53.6333C54.4556 54.3045 53.8972 54.8573 53.2232 54.8601C52.5493 54.8628 51.9799 54.2962 51.9689 53.6388C51.9579 52.9814 52.5658 52.3625 53.248 52.3818C53.9302 52.401 54.4693 52.9622 54.4638 53.6333Z" fill="#CAAB7E"/>
<path d="M10.4354 8.70188C10.437 9.02792 10.3109 9.34165 10.0843 9.57602C9.85759 9.8104 9.54824 9.94683 9.22232 9.95616C8.54014 9.97266 7.92397 9.37028 7.93773 8.69638C7.95148 8.02248 8.53738 7.47236 9.19756 7.47511C9.52352 7.47652 9.83588 7.60588 10.0674 7.83533C10.2989 8.06478 10.4311 8.37596 10.4354 8.70188Z" fill="#CAAB7E"/>
<path d="M11.5536 36.8906C12.244 36.8879 12.7914 37.4188 12.8024 38.0954C12.8134 38.7721 12.222 39.3717 11.5316 39.3524C10.8411 39.3332 10.2992 38.7583 10.3047 38.1037C10.3102 37.449 10.8741 36.8906 11.5536 36.8906Z" fill="#CAAB7E"/>
<path d="M53.4585 36.8907C54.1352 36.8962 54.6963 37.4463 54.6963 38.1119C54.6963 38.7776 54.1297 39.3415 53.464 39.3525C52.7983 39.3635 52.1876 38.7803 52.2014 38.0872C52.2152 37.394 52.7653 36.8852 53.4585 36.8907Z" fill="#CAAB7E"/>
<path d="M51.9529 19.0244C51.9391 19.6901 51.3752 20.2292 50.6958 20.2292C50.0164 20.2292 49.4305 19.6598 49.458 18.9557C49.4855 18.2515 50.0439 17.7647 50.7343 17.7812C51.4247 17.7977 51.9639 18.3615 51.9529 19.0244Z" fill="#CAAB7E"/>
<path d="M54.4594 20.2301C53.769 20.2383 53.2161 19.7157 53.1996 19.0363C53.1956 18.8753 53.2234 18.7152 53.2814 18.5649C53.3394 18.4147 53.4264 18.2774 53.5376 18.1609C53.6487 18.0444 53.7818 17.9509 53.9291 17.8859C54.0765 17.8209 54.2352 17.7856 54.3962 17.782C55.1031 17.7573 55.6973 18.3157 55.6973 19.0061C55.6973 19.6965 55.1416 20.2218 54.4594 20.2301Z" fill="#CAAB7E"/>
<path d="M59.4369 19.018C59.4287 19.6864 58.8703 20.2283 58.1881 20.231C57.5059 20.2338 56.92 19.6699 56.942 18.9658C56.964 18.2616 57.5197 17.7692 58.2101 17.783C58.9005 17.7967 59.4452 18.3524 59.4369 19.018Z" fill="#CAAB7E"/>
<path d="M32.4308 11.8331C31.6826 11.8331 30.9344 11.8441 30.1862 11.8303C29.3335 11.8166 28.7614 11.3022 28.7696 10.5788C28.7779 9.8554 29.3445 9.34929 30.2027 9.34378C31.7404 9.33278 33.2781 9.33003 34.8157 9.34378C35.6684 9.35204 36.2378 9.8719 36.2323 10.5953C36.2268 11.3187 35.6574 11.8193 34.7992 11.8303C34.0098 11.8441 33.2203 11.8331 32.4308 11.8331Z" fill="#CAAB7E"/>
<path d="M32.5023 18.0706C33.2697 18.0706 34.0399 18.0596 34.8074 18.0733C35.6629 18.0871 36.235 18.5959 36.2323 19.3194C36.2295 20.0428 35.6629 20.5544 34.8074 20.5599C33.2706 20.5745 31.7321 20.5745 30.1917 20.5599C29.3389 20.5544 28.7668 20.0373 28.7695 19.3166C28.7723 18.5959 29.3389 18.0871 30.1944 18.0733C30.9646 18.0596 31.7321 18.0706 32.5023 18.0706Z" fill="#CAAB7E"/>
<path d="M32.5465 29.2956C31.7543 29.2956 30.9649 29.3066 30.1754 29.2928C29.3254 29.2763 28.756 28.7537 28.7698 28.0303C28.7835 27.3069 29.3364 26.8145 30.1506 26.8063C31.7076 26.7898 33.2672 26.7925 34.8269 26.8063C35.6741 26.8145 36.2463 27.3454 36.2325 28.0661C36.2187 28.7867 35.6521 29.2818 34.7911 29.2928C34.0429 29.3038 33.2947 29.2956 32.5465 29.2956Z" fill="#CAAB7E"/>
</svg>
